<?xml version="1.0" encoding="UTF-8"?>
<svg id="Layer_1" xmlns="http://www.w3.org/2000/svg" version="1.1" viewBox="0 0 1584 500">
  <!-- Generator: Adobe Illustrator 29.5.1, SVG Export Plug-In . SVG Version: 2.1.0 Build 141)  -->
  <defs>
    <style>
      .st0 {
        fill: #5f3e78;
      }
    </style>
  </defs>
  <path class="st0" d="M67.38,113.19h-1.93v263.05c0,18.64,10.52,33.49,33.49,33.49h14.34v4.78H14.29v-4.78h11.97c23.45,0,33.49-15.3,33.49-32.05V113.19c0-18.64-10.52-28.71-33.49-28.71h-11.97v-4.78h101.41l141.09,230.52V117.97c0-18.64-10.52-33.49-33.49-33.49h-14.34v-4.78h99v4.78h-11.97c-23.45,0-33.49,15.3-33.49,33.49v303.7h-2.41L67.38,113.19Z"/>
  <path class="st0" d="M393.57,243.76c0-99.48,59.8-168.84,136.31-168.84s136.31,69.36,136.31,168.35c0,106.67-59.8,175.99-136.31,175.99s-136.31-69.36-136.31-175.54h0v.04h0ZM601.64,239.94c0-56.91,23.9-160.2-71.73-160.2s-71.73,103.78-71.73,160.2c0,61.69-23.9,174.58,71.73,174.58s71.73-113.82,71.73-174.58h0Z"/>
  <path class="st0" d="M763.77,409.74h11.97c24.38,0,33.49-11.97,33.49-28.71V113.19c0-16.75-9.08-28.71-33.49-28.71h-11.97v-4.78h143.49v4.78h-11.97c-23.9,0-33.49,12.45-33.49,28.71v267.83c0,16.26,9.56,28.71,33.49,28.71h11.97v4.78h-143.49v-4.78h0Z"/>
  <path class="st0" d="M1004.37,415.93c8.6-33.01,15.78-96.14,17.71-146.35h2.85c-.48,94.7,27.75,143.98,83.21,143.98,40.16,0,60.28-27.75,60.28-61.21,0-39.24-36.35-60.28-72.21-86.59s-84.66-51.17-84.66-106.18c0-50.68,38.75-83.21,100.92-83.21,20.56,0,39.68,1.93,55.46,1.93,17.23,0,30.12-2.41,35.86-11.97l2.85,2.41c-8.6,33.01-8.11,87.03-10.04,137.27h-2.85c-4.78-88.96-38.75-124.82-79.88-124.82-43.53,0-55.46,24.38-55.46,49.76,0,44.94,41.13,67.91,78.43,94.22,36.83,25.82,79.4,47.83,79.4,97.55,0,54.54-42.09,95.66-110.48,95.66-29.16,0-56.91-11.49-76.51-11.49-9.56,0-17.23,2.85-22.01,11.49l-2.85-2.41h0l-.04-.04h.02Z"/>
  <path class="st0" d="M1551.96,435.56c-7.63-18.64-17.23-21.04-112.85-21.04h-126.75v-4.78h11.97c24.38,0,33.49-11.97,33.49-28.71V113.19c0-16.75-9.08-28.71-33.49-28.71h-11.97v-4.78h135.82c80.36,0,91.81-2.41,100.92-15.3l1.93,2.41c-4.3,26.31-6.71,77.95-2.85,126.75l-3.33,2.41c-11.49-77.95-18.64-111.45-83.7-111.45h-50.68v146.83c60.72.48,67.43-13.37,77.95-54.98l2.85,1.44c-4.3,26.31-4.3,77.95,1.93,126.75l-2.85,2.41c-10.04-55.02-15.3-70.8-79.88-70.8v173.62h44.94c42.57,0,91.81-24.38,110.48-137.75h3.82c-9.08,47.35-15.3,101.89-15.3,163.09l-2.41.48h-.04v-.04h0Z"/>
</svg>