<?xml version="1.0" encoding="UTF-8"?>
<svg id="Layer_1" xmlns="http://www.w3.org/2000/svg" viewBox="0 0 1162 158.36">
  <defs>
    <style>
      .cls-1 {
        fill: #d1cae0;
      }

      .cls-2 {
        fill: #594d3d;
      }
    </style>
  </defs>
  <g>
    <path class="cls-2" d="M76.02,45.08l-19.21,75.52c-4.14,16.4-14.93,26.01-31.77,26.01-10.64,0-19.95-5.17-19.95-13.01,0-5.47,3.84-9.9,9.9-9.9,4.88,0,7.09,2.36,8.57,4.88,1.92,3.1,2.81,6.35,6.06,6.35,3.84,0,6.06-4.14,7.39-9.16l14.93-58.08c.15-.74.3-1.33.3-1.92,0-4.43-5.47-4.14-7.98-4.29l1.33-5.91,23.79-10.49h6.65ZM71.14,29.85c-7.09,0-12.71-4.58-12.71-10.2s5.62-10.2,12.71-10.2,12.71,4.58,12.71,10.2-5.62,10.2-12.71,10.2Z"/>
    <path class="cls-2" d="M140.01,98.13c-2.96,11.68,3.99,12.12,7.83,9.75l-2.22,8.28c-3.99,2.36-9.46,3.55-14.33,3.55-9.16,0-11.53-4.14-12.12-6.35-2.22,1.48-8.87,6.21-20.69,6.21-13.6,0-22.76-5.47-22.76-17,0-19.36,17.14-26.01,45.37-32.22l8.13-1.77,1.33-5.47c2.07-7.98-1.18-11.53-6.21-11.53-4.43,0-7.54,3.1-10.49,6.65-3.99,4.58-7.54,9.9-13.45,9.9-5.47,0-7.69-2.66-7.69-6.21,0-8.72,14.34-18.62,31.92-18.62s27.34,7.39,24.24,19.8l-8.87,35.03ZM126.56,79.36l-3.1.74c-17.29,4.29-28.97,8.87-28.97,18.18,0,6.06,3.69,10.05,11.68,10.05,9.9,0,14.48-5.91,17.59-18.03l2.81-10.94Z"/>
    <path class="cls-2" d="M222.91,70.35c-6.06,0-10.05-3.69-10.79-7.98-.89-4.29-1.77-8.72-6.95-8.72-15.37,0-25.71,25.12-25.71,37.98,0,9.75,4.14,17.14,14.63,17.14,8.72,0,19.66-7.09,24.98-13.89l7.24,4.58c-7.24,12.56-22.76,19.95-37.24,19.95-17.73,0-30.59-8.87-30.59-26.6,0-24.39,22.76-49.21,51.13-49.21,16.7,0,24.53,7.68,24.53,16.11,0,5.91-5.32,10.64-11.23,10.64Z"/>
    <path class="cls-2" d="M352.81,150.45c-24.39,0-56.31-14.63-72.86-49.66l-6.65-14.19-9.61,6.65-2.66,10.79c-.15.89-.3,1.48-.3,2.22,0,3.55,2.96,4.73,7.83,5.47l-1.48,6.06h-37.1l1.63-6.21c6.8-.59,9.75-2.22,11.38-8.87l18.62-75.37c.3-.89.44-2.22.44-3.4,0-4.14-2.96-4.73-6.21-4.73h-1.77l1.48-6.06c3.84-.89,8.13-2.22,12.12-3.99,4.58-1.92,8.87-4.29,12.41-6.8h6.5l-19.36,76.85,19.07-14.04c4.43-3.25,6.06-5.91,6.06-7.83,0-3.99-6.35-5.62-9.16-6.06l1.33-6.21h42.12l-1.77,6.06c-6.65.59-9.75,1.18-17.73,8.28l-18.33,16.26c5.62,20.69,15.96,43.45,33.7,56.46,8.72,6.36,19.21,11.08,30.15,11.08,10.05,0,13.74-4.88,16.55-9.75,2.81-4.88,4.73-9.75,11.23-9.75,3.99,0,6.8,2.81,6.8,6.65,0,10.35-11.08,20.1-34.43,20.1Z"/>
    <path class="cls-2" d="M357.82,45.08l-14.48,57.64c-.3,1.48-.89,3.1-.89,4.73,0,3.55,5.62,3.69,8.28,4.14l-1.77,6.21h-37.24l1.48-6.21c7.39-1.03,9.46-.3,11.23-7.83l8.42-33.69c.3-1.18.44-2.22.44-3.4,0-4.88-4.29-4.88-7.98-4.73l1.48-6.06c3.84-.89,8.13-2.37,12.12-3.99,4.58-1.92,8.87-4.29,12.41-6.8h6.5ZM352.8,29.85c-6.95,0-12.71-4.58-12.71-10.2s5.76-10.2,12.71-10.2,12.71,4.58,12.71,10.2-5.62,10.2-12.71,10.2Z"/>
    <path class="cls-2" d="M438.51,78.62h-51.87c-1.03,3.55-1.63,6.95-1.77,10.05-.59,14.19,7.09,20.84,16.11,20.84s19.66-8.72,24.24-16.26l9.46,3.84c-5.02,9.61-19.21,22.32-38.72,22.32s-32.96-12.41-32.36-30c1.03-25.12,22.61-45.81,47.44-45.81,23.2,0,30.44,15.37,29.85,29.41-.15,3.25-.89,5.62-2.37,5.62ZM410.58,52.76c-7.83,0-14.93,7.24-19.66,15.96h27.49c1.48,0,2.96-1.77,3.1-3.84.29-8.13-4.29-12.12-10.94-12.12Z"/>
    <path class="cls-2" d="M459.63,50.1l-5.91-4.29c5.17-5.47,11.08-14.48,11.08-19.51s-6.35-5.17-6.35-13.3c0-6.06,5.17-13.01,13.89-13.01,7.09,0,11.23,6.21,11.23,11.38,0,13.15-19.21,34.88-23.94,38.72Z"/>
    <path class="cls-2" d="M535.15,65.03l-5.91.74c-3.4-6.8-10.05-14.63-23.65-14.63-7.09,0-12.12,3.84-12.12,9.31,0,7.09,10.49,8.72,20.69,12.12,9.9,3.4,19.51,8.42,19.51,22.17,0,15.52-11.82,25.12-31.92,25.12-11.97,0-22.46-4.73-24.68-5.91l-2.51,2.96h-5.91l-2.07-22.76,6.8-1.33c2.22,4.43,9.31,17.88,26.9,17.88,9.61,0,14.63-4.14,14.63-9.9,0-8.42-11.23-10.35-21.72-14.04-9.16-3.1-17.88-7.69-17.88-19.21,0-13.89,13.6-24.24,31.33-24.24,10.05,0,15.37,2.81,18.18,3.69l2.51-2.22h5.02l2.81,20.25Z"/>
    <path class="cls-2" d="M654.11,70.35c-6.06,0-10.05-3.69-10.79-7.98-.89-4.29-1.77-8.72-6.95-8.72-15.37,0-25.71,25.12-25.71,37.98,0,9.75,4.14,17.14,14.63,17.14,8.72,0,19.66-7.09,24.98-13.89l7.24,4.58c-7.24,12.56-22.76,19.95-37.24,19.95-17.73,0-30.59-8.87-30.59-26.6,0-24.39,22.76-49.21,51.13-49.21,16.7,0,24.53,7.68,24.53,16.11,0,5.91-5.32,10.64-11.23,10.64Z"/>
    <path class="cls-2" d="M729.03,98.13c-2.96,11.68,3.99,12.12,7.83,9.75l-2.22,8.28c-3.99,2.36-9.46,3.55-14.33,3.55-9.16,0-11.53-4.14-12.12-6.35-2.22,1.48-8.87,6.21-20.69,6.21-13.6,0-22.76-5.47-22.76-17,0-19.36,17.14-26.01,45.37-32.22l8.13-1.77,1.33-5.47c2.07-7.98-1.18-11.53-6.21-11.53-4.43,0-7.54,3.1-10.49,6.65-3.99,4.58-7.54,9.9-13.45,9.9-5.47,0-7.69-2.66-7.69-6.21,0-8.72,14.34-18.62,31.92-18.62s27.34,7.39,24.24,19.8l-8.87,35.03ZM715.58,79.36l-3.1.74c-17.29,4.29-28.97,8.87-28.97,18.18,0,6.06,3.69,10.05,11.68,10.05,9.9,0,14.48-5.91,17.59-18.03l2.81-10.94Z"/>
    <path class="cls-2" d="M859.52,157.99c-13.74,0-28.08-6.5-28.08-22.02,0-6.5,2.07-12.56,3.69-18.77l12.71-48.92c.44-1.48.59-2.96.59-4.14,0-5.76-3.99-8.28-9.75-8.28-2.81,0-9.16,2.22-14.04,5.17,0,1.63-.29,3.4-.74,5.32l-8.87,36.36c-.44,1.63-.74,3.1-.74,4.73,0,3.55,5.62,3.69,8.13,4.14l-1.63,6.21h-37.24l1.48-6.21c7.39-1.03,9.46-.3,11.23-7.83l8.72-35.47c.29-1.48.59-2.96.59-4.14,0-5.76-2.81-8.13-6.8-8.13-7.98,0-13.3,3.55-16.85,6.35l-9.75,40.35c-.29,1.63-.89,3.1-.89,4.73,0,3.55,5.62,3.69,8.28,4.14l-1.77,6.21h-37.24l1.48-6.21c7.39-1.03,9.46-.44,11.23-7.83l8.87-35.17c.3-1.18.44-2.22.44-3.4,0-4.88-4.29-4.88-7.98-4.73l1.48-6.06c3.84-.89,8.13-2.37,12.12-3.99,4.58-1.92,8.87-4.29,12.41-6.8h6.5l-2.07,7.68c3.55-2.07,9.46-7.54,20.69-7.54,7.39,0,14.04,2.96,17.14,8.57,4.88-3.4,16.11-8.57,25.86-8.57s18.92,5.47,18.92,16.55c0,1.77-.3,3.84-.89,6.06l-13.15,52.32c-1.63,6.5-3.4,13.3-3.4,20.1,0,5.32,1.63,11.08,8.13,11.08,9.9,0,5.76-18.33,19.36-18.33,4.58,0,8.72,2.96,8.72,7.98,0,13.45-16.11,18.47-26.9,18.47Z"/>
    <path class="cls-2" d="M947.14,78.62h-51.87c-1.03,3.55-1.63,6.95-1.77,10.05-.59,14.19,7.1,20.84,16.11,20.84s19.66-8.72,24.24-16.26l9.46,3.84c-5.02,9.61-19.21,22.32-38.72,22.32s-32.96-12.41-32.36-30c1.03-25.12,22.61-45.81,47.44-45.81,23.2,0,30.45,15.37,29.85,29.41-.15,3.25-.89,5.62-2.37,5.62ZM919.21,52.76c-7.83,0-14.93,7.24-19.66,15.96h27.49c1.48,0,2.96-1.77,3.1-3.84.29-8.13-4.29-12.12-10.94-12.12Z"/>
    <path class="cls-2" d="M1013.2,62.66c-6.21,0-7.83-3.69-14.78-3.69s-10.35,4.73-13.3,16.55l-6.8,26.9c-.44,2.07-.89,3.55-.89,4.73,0,2.66,2.07,3.25,8.28,4.29l-1.63,6.35h-37.39l1.48-6.21c7.39-1.03,9.46-.44,11.23-7.83l8.57-33.69c.15-1.18.44-2.22.44-3.4,0-4.14-3.1-4.73-6.36-4.73h-1.77l1.48-6.06c3.99-.89,8.13-2.37,12.12-3.99,4.58-1.92,9.02-4.29,12.41-6.8h6.8l-1.92,7.09c5.17-4.43,13.15-9.9,21.87-9.9,6.95,0,10.35,5.02,10.35,10.05s-3.55,10.35-10.2,10.35Z"/>
    <path class="cls-2" d="M1077.63,98.13c-2.95,11.68,3.99,12.12,7.83,9.75l-2.22,8.28c-3.99,2.36-9.46,3.55-14.33,3.55-9.16,0-11.53-4.14-12.12-6.35-2.22,1.48-8.87,6.21-20.69,6.21-13.6,0-22.76-5.47-22.76-17,0-19.36,17.14-26.01,45.37-32.22l8.13-1.77,1.33-5.47c2.07-7.98-1.18-11.53-6.21-11.53-4.44,0-7.54,3.1-10.49,6.65-3.99,4.58-7.54,9.9-13.45,9.9-5.47,0-7.69-2.66-7.69-6.21,0-8.72,14.34-18.62,31.92-18.62s27.34,7.39,24.24,19.8l-8.87,35.03ZM1064.18,79.36l-3.1.74c-17.29,4.29-28.97,8.87-28.97,18.18,0,6.06,3.7,10.05,11.68,10.05,9.9,0,14.48-5.91,17.59-18.03l2.81-10.94Z"/>
    <path class="cls-2" d="M1162,65.03l-5.91.74c-3.4-6.8-10.05-14.63-23.65-14.63-7.09,0-12.12,3.84-12.12,9.31,0,7.09,10.49,8.72,20.69,12.12,9.9,3.4,19.51,8.42,19.51,22.17,0,15.52-11.82,25.12-31.92,25.12-11.97,0-22.46-4.73-24.68-5.91l-2.51,2.96h-5.91l-2.07-22.76,6.8-1.33c2.22,4.43,9.31,17.88,26.9,17.88,9.61,0,14.63-4.14,14.63-9.9,0-8.42-11.23-10.35-21.72-14.04-9.16-3.1-17.88-7.69-17.88-19.21,0-13.89,13.6-24.24,31.33-24.24,10.05,0,15.37,2.81,18.18,3.69l2.51-2.22h5.02l2.81,20.25Z"/>
  </g>
  <g>
    <path class="cls-1" d="M70.94,45.44l-19.21,75.52c-4.14,16.4-14.93,26.01-31.77,26.01-10.64,0-19.95-5.17-19.95-13.01,0-5.47,3.84-9.9,9.9-9.9,4.88,0,7.09,2.36,8.57,4.88,1.92,3.1,2.81,6.35,6.06,6.35,3.84,0,6.06-4.14,7.39-9.16l14.93-58.08c.15-.74.3-1.33.3-1.92,0-4.43-5.47-4.14-7.98-4.29l1.33-5.91,23.79-10.49h6.65ZM66.06,30.22c-7.09,0-12.71-4.58-12.71-10.2s5.62-10.2,12.71-10.2,12.71,4.58,12.71,10.2-5.62,10.2-12.71,10.2Z"/>
    <path class="cls-1" d="M134.92,98.5c-2.96,11.68,3.99,12.12,7.83,9.75l-2.22,8.28c-3.99,2.36-9.46,3.55-14.33,3.55-9.16,0-11.53-4.14-12.12-6.35-2.22,1.48-8.87,6.21-20.69,6.21-13.6,0-22.76-5.47-22.76-17,0-19.36,17.14-26.01,45.37-32.22l8.13-1.77,1.33-5.47c2.07-7.98-1.18-11.53-6.21-11.53-4.43,0-7.54,3.1-10.49,6.65-3.99,4.58-7.54,9.9-13.45,9.9-5.47,0-7.69-2.66-7.69-6.21,0-8.72,14.34-18.62,31.92-18.62s27.34,7.39,24.24,19.8l-8.87,35.03ZM121.48,79.73l-3.1.74c-17.29,4.29-28.97,8.87-28.97,18.18,0,6.06,3.69,10.05,11.68,10.05,9.9,0,14.48-5.91,17.59-18.03l2.81-10.94Z"/>
    <path class="cls-1" d="M217.83,70.72c-6.06,0-10.05-3.69-10.79-7.98-.89-4.29-1.77-8.72-6.95-8.72-15.37,0-25.71,25.12-25.71,37.98,0,9.75,4.14,17.14,14.63,17.14,8.72,0,19.66-7.09,24.98-13.89l7.24,4.58c-7.24,12.56-22.76,19.95-37.24,19.95-17.73,0-30.59-8.87-30.59-26.6,0-24.39,22.76-49.21,51.13-49.21,16.7,0,24.53,7.68,24.53,16.11,0,5.91-5.32,10.64-11.23,10.64Z"/>
    <path class="cls-1" d="M347.72,150.82c-24.39,0-56.31-14.63-72.86-49.66l-6.65-14.19-9.61,6.65-2.66,10.79c-.15.89-.3,1.48-.3,2.22,0,3.55,2.96,4.73,7.83,5.47l-1.48,6.06h-37.1l1.63-6.21c6.8-.59,9.75-2.22,11.38-8.87l18.62-75.37c.3-.89.44-2.22.44-3.4,0-4.14-2.96-4.73-6.21-4.73h-1.77l1.48-6.06c3.84-.89,8.13-2.22,12.12-3.99,4.58-1.92,8.87-4.29,12.41-6.8h6.5l-19.36,76.85,19.07-14.04c4.43-3.25,6.06-5.91,6.06-7.83,0-3.99-6.35-5.62-9.16-6.06l1.33-6.21h42.12l-1.77,6.06c-6.65.59-9.75,1.18-17.73,8.28l-18.33,16.26c5.62,20.69,15.96,43.45,33.7,56.46,8.72,6.36,19.21,11.08,30.15,11.08,10.05,0,13.74-4.88,16.55-9.75,2.81-4.88,4.73-9.75,11.23-9.75,3.99,0,6.8,2.81,6.8,6.65,0,10.35-11.08,20.1-34.43,20.1Z"/>
    <path class="cls-1" d="M352.74,45.44l-14.48,57.64c-.3,1.48-.89,3.1-.89,4.73,0,3.55,5.62,3.69,8.28,4.14l-1.77,6.21h-37.24l1.48-6.21c7.39-1.03,9.46-.3,11.23-7.83l8.42-33.69c.3-1.18.44-2.22.44-3.4,0-4.88-4.29-4.88-7.98-4.73l1.48-6.06c3.84-.89,8.13-2.37,12.12-3.99,4.58-1.92,8.87-4.29,12.41-6.8h6.5ZM347.71,30.22c-6.95,0-12.71-4.58-12.71-10.2s5.76-10.2,12.71-10.2,12.71,4.58,12.71,10.2-5.62,10.2-12.71,10.2Z"/>
    <path class="cls-1" d="M433.43,78.99h-51.87c-1.03,3.55-1.63,6.95-1.77,10.05-.59,14.19,7.09,20.84,16.11,20.84s19.66-8.72,24.24-16.26l9.46,3.84c-5.02,9.61-19.21,22.32-38.72,22.32s-32.96-12.41-32.36-30c1.03-25.12,22.61-45.81,47.44-45.81,23.2,0,30.44,15.37,29.85,29.41-.15,3.25-.89,5.62-2.37,5.62ZM405.49,53.13c-7.83,0-14.93,7.24-19.66,15.96h27.49c1.48,0,2.96-1.77,3.1-3.84.29-8.13-4.29-12.12-10.94-12.12Z"/>
    <path class="cls-1" d="M454.55,50.47l-5.91-4.29c5.17-5.47,11.08-14.48,11.08-19.51s-6.35-5.17-6.35-13.3c0-6.06,5.17-13.01,13.89-13.01,7.09,0,11.23,6.21,11.23,11.38,0,13.15-19.21,34.88-23.94,38.72Z"/>
    <path class="cls-1" d="M530.07,65.4l-5.91.74c-3.4-6.8-10.05-14.63-23.65-14.63-7.09,0-12.12,3.84-12.12,9.31,0,7.09,10.49,8.72,20.69,12.12,9.9,3.4,19.51,8.42,19.51,22.17,0,15.52-11.82,25.12-31.92,25.12-11.97,0-22.46-4.73-24.68-5.91l-2.51,2.96h-5.91l-2.07-22.76,6.8-1.33c2.22,4.43,9.31,17.88,26.9,17.88,9.61,0,14.63-4.14,14.63-9.9,0-8.42-11.23-10.35-21.72-14.04-9.16-3.1-17.88-7.69-17.88-19.21,0-13.89,13.6-24.24,31.33-24.24,10.05,0,15.37,2.81,18.18,3.69l2.51-2.22h5.02l2.81,20.25Z"/>
    <path class="cls-1" d="M649.03,70.72c-6.06,0-10.05-3.69-10.79-7.98-.89-4.29-1.77-8.72-6.95-8.72-15.37,0-25.71,25.12-25.71,37.98,0,9.75,4.14,17.14,14.63,17.14,8.72,0,19.66-7.09,24.98-13.89l7.24,4.58c-7.24,12.56-22.76,19.95-37.24,19.95-17.73,0-30.59-8.87-30.59-26.6,0-24.39,22.76-49.21,51.13-49.21,16.7,0,24.53,7.68,24.53,16.11,0,5.91-5.32,10.64-11.23,10.64Z"/>
    <path class="cls-1" d="M723.95,98.5c-2.96,11.68,3.99,12.12,7.83,9.75l-2.22,8.28c-3.99,2.36-9.46,3.55-14.33,3.55-9.16,0-11.53-4.14-12.12-6.35-2.22,1.48-8.87,6.21-20.69,6.21-13.6,0-22.76-5.47-22.76-17,0-19.36,17.14-26.01,45.37-32.22l8.13-1.77,1.33-5.47c2.07-7.98-1.18-11.53-6.21-11.53-4.43,0-7.54,3.1-10.49,6.65-3.99,4.58-7.54,9.9-13.45,9.9-5.47,0-7.69-2.66-7.69-6.21,0-8.72,14.34-18.62,31.92-18.62s27.34,7.39,24.24,19.8l-8.87,35.03ZM710.5,79.73l-3.1.74c-17.29,4.29-28.97,8.87-28.97,18.18,0,6.06,3.69,10.05,11.68,10.05,9.9,0,14.48-5.91,17.59-18.03l2.81-10.94Z"/>
    <path class="cls-1" d="M854.43,158.36c-13.74,0-28.08-6.5-28.08-22.02,0-6.5,2.07-12.56,3.69-18.77l12.71-48.92c.44-1.48.59-2.96.59-4.14,0-5.76-3.99-8.28-9.75-8.28-2.81,0-9.16,2.22-14.04,5.17,0,1.63-.29,3.4-.74,5.32l-8.87,36.36c-.44,1.63-.74,3.1-.74,4.73,0,3.55,5.62,3.69,8.13,4.14l-1.63,6.21h-37.24l1.48-6.21c7.39-1.03,9.46-.3,11.23-7.83l8.72-35.47c.29-1.48.59-2.96.59-4.14,0-5.76-2.81-8.13-6.8-8.13-7.98,0-13.3,3.55-16.85,6.35l-9.75,40.35c-.29,1.63-.89,3.1-.89,4.73,0,3.55,5.62,3.69,8.28,4.14l-1.77,6.21h-37.24l1.48-6.21c7.39-1.03,9.46-.44,11.23-7.83l8.87-35.17c.3-1.18.44-2.22.44-3.4,0-4.88-4.29-4.88-7.98-4.73l1.48-6.06c3.84-.89,8.13-2.37,12.12-3.99,4.58-1.92,8.87-4.29,12.41-6.8h6.5l-2.07,7.68c3.55-2.07,9.46-7.54,20.69-7.54,7.39,0,14.04,2.96,17.14,8.57,4.88-3.4,16.11-8.57,25.86-8.57s18.92,5.47,18.92,16.55c0,1.77-.3,3.84-.89,6.06l-13.15,52.32c-1.63,6.5-3.4,13.3-3.4,20.1,0,5.32,1.63,11.08,8.13,11.08,9.9,0,5.76-18.33,19.36-18.33,4.58,0,8.72,2.96,8.72,7.98,0,13.45-16.11,18.47-26.9,18.47Z"/>
    <path class="cls-1" d="M942.06,78.99h-51.87c-1.03,3.55-1.63,6.95-1.77,10.05-.59,14.19,7.1,20.84,16.11,20.84s19.66-8.72,24.24-16.26l9.46,3.84c-5.02,9.61-19.21,22.32-38.72,22.32s-32.96-12.41-32.36-30c1.03-25.12,22.61-45.81,47.44-45.81,23.2,0,30.45,15.37,29.85,29.41-.15,3.25-.89,5.62-2.37,5.62ZM914.13,53.13c-7.83,0-14.93,7.24-19.66,15.96h27.49c1.48,0,2.96-1.77,3.1-3.84.29-8.13-4.29-12.12-10.94-12.12Z"/>
    <path class="cls-1" d="M1008.11,63.03c-6.21,0-7.83-3.69-14.78-3.69s-10.35,4.73-13.3,16.55l-6.8,26.9c-.44,2.07-.89,3.55-.89,4.73,0,2.66,2.07,3.25,8.28,4.29l-1.63,6.35h-37.39l1.48-6.21c7.39-1.03,9.46-.44,11.23-7.83l8.57-33.69c.15-1.18.44-2.22.44-3.4,0-4.14-3.1-4.73-6.36-4.73h-1.77l1.48-6.06c3.99-.89,8.13-2.37,12.12-3.99,4.58-1.92,9.02-4.29,12.41-6.8h6.8l-1.92,7.09c5.17-4.43,13.15-9.9,21.87-9.9,6.95,0,10.35,5.02,10.35,10.05s-3.55,10.35-10.2,10.35Z"/>
    <path class="cls-1" d="M1072.54,98.5c-2.95,11.68,3.99,12.12,7.83,9.75l-2.22,8.28c-3.99,2.36-9.46,3.55-14.33,3.55-9.16,0-11.53-4.14-12.12-6.35-2.22,1.48-8.87,6.21-20.69,6.21-13.6,0-22.76-5.47-22.76-17,0-19.36,17.14-26.01,45.37-32.22l8.13-1.77,1.33-5.47c2.07-7.98-1.18-11.53-6.21-11.53-4.44,0-7.54,3.1-10.49,6.65-3.99,4.58-7.54,9.9-13.45,9.9-5.47,0-7.69-2.66-7.69-6.21,0-8.72,14.34-18.62,31.92-18.62s27.34,7.39,24.24,19.8l-8.87,35.03ZM1059.1,79.73l-3.1.74c-17.29,4.29-28.97,8.87-28.97,18.18,0,6.06,3.7,10.05,11.68,10.05,9.9,0,14.48-5.91,17.59-18.03l2.81-10.94Z"/>
    <path class="cls-1" d="M1156.92,65.4l-5.91.74c-3.4-6.8-10.05-14.63-23.65-14.63-7.09,0-12.12,3.84-12.12,9.31,0,7.09,10.49,8.72,20.69,12.12,9.9,3.4,19.51,8.42,19.51,22.17,0,15.52-11.82,25.12-31.92,25.12-11.97,0-22.46-4.73-24.68-5.91l-2.51,2.96h-5.91l-2.07-22.76,6.8-1.33c2.22,4.43,9.31,17.88,26.9,17.88,9.61,0,14.63-4.14,14.63-9.9,0-8.42-11.23-10.35-21.72-14.04-9.16-3.1-17.88-7.69-17.88-19.21,0-13.89,13.6-24.24,31.33-24.24,10.05,0,15.37,2.81,18.18,3.69l2.51-2.22h5.02l2.81,20.25Z"/>
  </g>
</svg>